<svg aria-hidden="true" style="position: absolute; width: 0; height: 0; overflow: hidden;" version="1.1" xmlns="http://www.w3.org/2000/svg" xmlns:xlink="http://www.w3.org/1999/xlink">
<defs>
<symbol id="antenna" viewBox="0 0 20 20">
<path fill="#212121" style="fill: var(--color1, #212121)" d="M19.233 13.811l-5.277-5.316 0.586-2.885c0.151 0.059 0.312 0.090 0.474 0.091h0.004c0.745 0.009 1.356-0.588 1.365-1.333s-0.588-1.356-1.333-1.365c-0.745-0.009-1.356 0.588-1.365 1.333-0.002 0.159 0.024 0.318 0.078 0.468l-3.1 0.378-5.057-5.083c-0.062-0.063-0.147-0.099-0.235-0.1-0.088 0-0.171 0.035-0.233 0.097l-0.945 0.94c-0.13 0.13-0.13 0.341 0 0.471l0.509 0.516c-1.971 3.624-1.331 8.111 1.575 11.039 0.027 0.026 0.058 0.046 0.091 0.061-0.021 0.113-0.032 0.227-0.033 0.342v3.867h-4c-0.92 0.001-1.666 0.747-1.667 1.667v0.667c0 0.184 0.149 0.333 0.333 0.333h15.333c0.184 0 0.333-0.149 0.333-0.333v-0.667c-0.001-0.92-0.747-1.666-1.667-1.667h-4v-1.714c0.627 0.131 1.265 0.198 1.905 0.2 1.536-0.002 3.048-0.385 4.4-1.115l0.511 0.514c0.062 0.063 0.147 0.099 0.235 0.1 0.087-0 0.171-0.035 0.233-0.097l0.945-0.94c0.13-0.13 0.13-0.341 0-0.471zM14.55 3.896c0.261-0.26 0.683-0.258 0.943 0.003s0.258 0.683-0.003 0.943c-0.125 0.124-0.294 0.194-0.47 0.194h-0.002c-0.368-0.002-0.665-0.302-0.663-0.67 0.001-0.176 0.072-0.345 0.197-0.469h-0.001zM13.765 6.086l-0.374 1.841-0.735-0.739 1.109-1.102zM13.387 5.522l-1.2 1.193-0.928-0.933 2.128-0.26zM15.003 18c0.552 0 1 0.448 1 1v0.333h-14.667v-0.333c0-0.552 0.448-1 1-1h12.667zM10.336 16.667v0.667h-3.333v-0.667h3.333zM7.003 16v-2.533c0-0.809 0.748-1.467 1.667-1.467s1.667 0.658 1.667 1.467v2.533h-3.333zM11.003 14.94v-1.473c0-1.176-1.047-2.133-2.333-2.133-0.832-0.013-1.61 0.411-2.051 1.116-2.536-2.671-3.107-6.653-1.424-9.929l11.626 11.693c-1.795 0.913-3.853 1.17-5.818 0.727zM18.058 14.513l-13.161-13.238 0.472-0.47 4.959 4.987c0.002 0 0.004 0.004 0.006 0.006l8.197 8.245-0.473 0.47z"></path>
<path fill="#2196f3" style="fill: var(--color2, #2196f3)" d="M8.672 12.667h-0.003c-0.552-0.001-1.001 0.446-1.002 0.999s0.446 1.001 0.999 1.001h0.003c0.552 0.001 1.001-0.446 1.001-0.998s-0.446-1.001-0.998-1.002zM8.906 13.903c-0.063 0.062-0.148 0.097-0.236 0.097-0.184-0.001-0.333-0.151-0.332-0.335 0-0.088 0.036-0.172 0.098-0.235s0.146-0.097 0.233-0.097c0.184 0.001 0.333 0.151 0.332 0.335-0 0.088-0.036 0.172-0.098 0.235h0.003z"></path>
</symbol>
<symbol id="close-black" viewBox="0 0 18 18">
<path d="M15 4.10786L13.8921 3L9.5 7.39214L5.10786 3L4 4.10786L8.39214 8.5L4 12.8921L5.10786 14L9.5
 9.60786L13.8921 14L15 12.8921L10.6079 8.5L15 4.10786Z"></path>
</symbol>

<symbol id="menu_close" viewBox="0 0 40 40">
<path d="M29.667 12.88 27.787 11l-7.454 7.453L12.88 11 11 12.88l7.453 7.453L11 27.787l1.88 1.88 7.453-7.454 7.454 7.454 1.88-1.88-7.454-7.454 7.454-7.453Z"/>
</symbol>

<symbol id="menu_open" viewBox="0 0 40 40">
<path  clip-rule="evenodd" d="M8 14.667V12h24v2.667H8Zm0 6.666h24v-2.666H8v2.666ZM8 28h24v-2.667H8V28Z"/>
</symbol>



<symbol id="icon_check" viewBox="0 0 15 16">
<path d="m3.957 7.752-.069-.066-.069.065-.888.842-.076.072.076.073 3.496 3.334.069.066.069-.066 
7.504-7.158.076-.073-.076-.072-.882-.841-.069-.066-.069.066-6.553 6.246-2.539-2.422Z"></path>
</symbol>

<symbol id="input_email" viewBox="0 0 18 18">
<path d="M15 3H3c-.825 0-1.492.675-1.492 1.5l-.008 9c0 .825.675 1.5 1.5 1.5h12c.825 0 1.5-.675 1.5-1.5v-9c0-.825-.675-1.5-1.5-1.5Zm-.3 3.188L9.398 9.502a.759.759 0 0 1-.796 0L3.3 6.188a.637.637 0 1 1 .675-1.08L9 8.25l5.025-3.143a.637.637 0 1 1 .675 1.08Z"></path>
</symbol>

<symbol id="input_name" viewBox="0 0 18 18">
<path d="M9 9a3 3 0 1 0 0-6 3 3 0 1 0 0 6Zm0 1.5c-2.003 0-6 1.005-6 3v.75c0 .412.337.75.75.75h10.5c.412 0 .75-.338.75-.75v-.75c0-1.995-3.998-3-6-3Z"></path>
</symbol>

<symbol id="input_phone" viewBox="0 0 18 18">
<path d="m13.996 11.123-1.838-.21a1.44 1.44 0 0 0-1.187.412l-1.332 1.332a10.888 10.888 0 0 1-4.769-4.77L6.21 6.55a1.44 1.44 0 0 0 .412-1.187l-.21-1.824a1.448 1.448 0 0 0-1.44-1.28H3.72c-.818 0-1.498.68-1.448 1.497.384 6.18 5.327 11.116 11.5 11.5.817.05 1.498-.63 1.498-1.448v-1.252a1.434 1.434 0 0 0-1.274-1.432Z"></path>
</symbol>

<symbol id="sent" viewBox="0 0 24 24">
<path d="M24 0 0 13.5l7.67 2.84L19.5 5.25l-8.998 12.14.007.002-.009-.002V24l4.301-5.018L20.251 21 24 0Z" ></path>
</symbol>

<symbol id="astronaut" viewBox="0 0 20 20">
<path fill="#2196f3" style="fill: var(--color2, #2196f3)" d="M19.984 2.828c-0.039-0.12-0.143-0.208-0.269-0.227l-1.194-0.174-0.534-1.082c-0.112-0.228-0.486-0.228-0.598 0l-0.534 1.082-1.194 0.174c-0.126 0.018-0.23 0.106-0.269 0.227s-0.007 0.253 0.084 0.342l0.864 0.842-0.204 1.189c-0.021 0.125 0.030 0.251 0.132 0.326 0.104 0.075 0.239 0.085 0.351 0.025l1.068-0.562 1.068 0.562c0.049 0.026 0.102 0.038 0.155 0.038 0.069 0 0.138-0.021 0.196-0.064 0.103-0.075 0.154-0.201 0.132-0.326l-0.204-1.189 0.864-0.842c0.091-0.089 0.123-0.221 0.084-0.342zM18.444 3.657c-0.078 0.076-0.114 0.187-0.096 0.295l0.119 0.696-0.625-0.329c-0.049-0.026-0.102-0.038-0.155-0.038s-0.106 0.013-0.155 0.038l-0.625 0.329 0.119-0.696c0.019-0.108-0.017-0.218-0.096-0.295l-0.506-0.493 0.699-0.102c0.109-0.016 0.202-0.084 0.251-0.182l0.313-0.633 0.313 0.633c0.049 0.098 0.142 0.167 0.251 0.182l0.699 0.102-0.506 0.493z"></path>
<path fill="#2196f3" style="fill: var(--color2, #2196f3)" d="M16.333 12.826h-0.667v0.667h0.667v-0.667z"></path>
<path fill="#2196f3" style="fill: var(--color2, #2196f3)" d="M16.333 14.16h-0.667v0.667h0.667v-0.667z"></path>
<path fill="#2196f3" style="fill: var(--color2, #2196f3)" d="M17 13.493h-0.667v0.667h0.667v-0.667z"></path>
<path fill="#2196f3" style="fill: var(--color2, #2196f3)" d="M15.667 13.493h-0.667v0.667h0.667v-0.667z"></path>
<path fill="#2196f3" style="fill: var(--color2, #2196f3)" d="M14 16.493h-0.667v0.667h0.667v-0.667z"></path>
<path fill="#2196f3" style="fill: var(--color2, #2196f3)" d="M14 17.826h-0.667v0.667h0.667v-0.667z"></path>
<path fill="#2196f3" style="fill: var(--color2, #2196f3)" d="M14.667 17.16h-0.667v0.667h0.667v-0.667z"></path>
<path fill="#2196f3" style="fill: var(--color2, #2196f3)" d="M13.333 17.16h-0.667v0.667h0.667v-0.667z"></path>
<path fill="#2196f3" style="fill: var(--color2, #2196f3)" d="M10 15.16h-0.667v0.667h0.667v-0.667z"></path>
<path fill="#2196f3" style="fill: var(--color2, #2196f3)" d="M10 16.493h-0.667v0.667h0.667v-0.667z"></path>
<path fill="#2196f3" style="fill: var(--color2, #2196f3)" d="M10.667 15.826h-0.667v0.667h0.667v-0.667z"></path>
<path fill="#2196f3" style="fill: var(--color2, #2196f3)" d="M9.333 15.826h-0.667v0.667h0.667v-0.667z"></path>
<path fill="#2196f3" style="fill: var(--color2, #2196f3)" d="M3.667 3.826h-0.667v0.667h0.667v-0.667z"></path>
<path fill="#2196f3" style="fill: var(--color2, #2196f3)" d="M3.667 5.16h-0.667v0.667h0.667v-0.667z"></path>
<path fill="#2196f3" style="fill: var(--color2, #2196f3)" d="M4.333 4.493h-0.667v0.667h0.667v-0.667z"></path>
<path fill="#2196f3" style="fill: var(--color2, #2196f3)" d="M3 4.493h-0.667v0.667h0.667v-0.667z"></path>
<path fill="#212121" style="fill: var(--color1, #212121)" d="M15.447 8.85c-0.18-0.242-0.443-0.398-0.743-0.44-0.301-0.043-0.597 0.036-0.837 0.22l-0.783 0.6-1.186 0.886-0.849-0.338c1.513-0.679 2.571-2.193 2.571-3.95 0-2.389-1.952-4.333-4.351-4.333s-4.351 1.944-4.351 4.333c0 0.866 0.259 1.671 0.7 2.349l-1.727-0.015c-0.001 0-0.002 0-0.003 0-0.005 0-0.010 0.003-0.015 0.003-0.033 0.001-0.065 0.008-0.097 0.019-0.008 0.003-0.016 0.005-0.024 0.008-0.004 0.002-0.008 0.002-0.012 0.004l-2.021 0.998c-0 0-0.001 0-0.001 0l-1.183 0.569c-0.013 0.006-0.026 0.013-0.039 0.022-0.472 0.314-0.632 0.931-0.374 1.435 0.138 0.268 0.372 0.465 0.66 0.556 0.111 0.035 0.224 0.052 0.337 0.052 0.181 0 0.36-0.044 0.525-0.132l0.867-0.461 1.415-0.731 0.848-0.005-3.401 3.385c-0 0-0.001 0-0.001 0.001l-0.837 0.833c-0.198 0.197-0.306 0.458-0.306 0.736s0.109 0.54 0.306 0.737c0.203 0.202 0.47 0.303 0.737 0.303s0.534-0.101 0.738-0.303l0.821-0.818 1.088-0.812 0.563 0.561-1.101 1.096c-0 0-0.001 0-0.001 0.001l-0.837 0.833c-0.198 0.197-0.306 0.458-0.306 0.736s0.109 0.54 0.306 0.737c0.203 0.202 0.47 0.303 0.737 0.303s0.534-0.101 0.738-0.303l2.176-2.167c0-0 0-0.001 0.001-0.001l0.631-0.625-0.002-0.002c0.004-0.004 0.010-0.005 0.014-0.010l3.229-3.536 2.169 0.309c0.016 0.002 0.031 0.003 0.047 0.003 0.040 0 0.079-0.010 0.117-0.024 0.011-0.004 0.021-0.009 0.031-0.015 0.012-0.006 0.025-0.009 0.036-0.017l2.008-1.333c0.007-0.005 0.011-0.013 0.018-0.018 0.008-0.006 0.018-0.009 0.025-0.016l0.795-0.744c0.413-0.387 0.47-1.022 0.132-1.476zM1.332 11.106c-0.108 0.058-0.231 0.070-0.349 0.032s-0.211-0.116-0.267-0.224c-0.101-0.196-0.042-0.435 0.134-0.564l0.821-0.395 0.281 0.82-0.62 0.33zM3.517 9.964l-0.968 0.5-0.274-0.802 1.267-0.625-0.025 0.927zM12.954 5.826c0 0.574-0.137 1.115-0.374 1.6l-2.613-1.187c-0.027-0.358-0.213-0.672-0.493-0.867l0.915-3.038c1.486 0.473 2.565 1.859 2.565 3.492zM5.586 5.826c0-2.022 1.653-3.667 3.684-3.667 0.158 0 0.313 0.013 0.466 0.033l-0.895 2.971c-0.012-0-0.023-0.004-0.036-0.004-0.645 0-1.17 0.523-1.17 1.167s0.525 1.167 1.17 1.167c0.434 0 0.809-0.24 1.011-0.59l2.414 1.097c-0.672 0.904-1.747 1.494-2.96 1.494-2.031 0-3.684-1.645-3.684-3.667zM9.309 6.326c0 0.276-0.226 0.5-0.504 0.5s-0.504-0.224-0.504-0.5c0-0.276 0.226-0.5 0.504-0.5s0.504 0.224 0.504 0.5zM1.541 15.716c-0.148 0.146-0.387 0.146-0.534 0-0.071-0.071-0.11-0.165-0.11-0.264s0.039-0.193 0.11-0.263l0.601-0.599 0.532 0.53-0.599 0.597zM3.549 18.050c-0.148 0.146-0.387 0.147-0.534 0-0.071-0.071-0.11-0.165-0.11-0.264s0.039-0.193 0.11-0.263l0.602-0.599 0.532 0.53-0.6 0.597zM5.725 15.882c-0 0-0.001 0-0.001 0.001l-1.103 1.1-0.532-0.53 1.102-1.097c0 0 0 0 0-0s0.001-0 0.001-0.001c0.025-0.025 0.041-0.055 0.056-0.085 0.004-0.009 0.013-0.016 0.016-0.025 0.010-0.026 0.012-0.053 0.016-0.080 0.002-0.015 0.009-0.030 0.009-0.045 0-0.022-0.008-0.044-0.013-0.066-0.004-0.020-0.004-0.040-0.012-0.060-0.013-0.031-0.034-0.059-0.057-0.086-0.006-0.007-0.009-0.017-0.016-0.024 0 0 0 0-0 0s-0-0.001-0.001-0.001l-1.004-1c-0.011-0.011-0.024-0.015-0.036-0.024-0.018-0.014-0.035-0.026-0.054-0.036s-0.038-0.015-0.058-0.020c-0.021-0.006-0.042-0.011-0.064-0.012-0.020-0.001-0.039 0.001-0.060 0.003-0.022 0.003-0.043 0.006-0.065 0.013s-0.040 0.017-0.059 0.028c-0.012 0.007-0.026 0.009-0.038 0.018l-1.108 0.827-0.563-0.561 1.499-1.491 2.725 2.68-0.58 0.574zM9.987 11.496c-0.010-0.001-0.019 0.002-0.028 0.002-0.024-0.001-0.048 0-0.072 0.004-0.019 0.003-0.037 0.007-0.055 0.013-0.021 0.007-0.041 0.017-0.060 0.029-0.019 0.011-0.036 0.023-0.052 0.038-0.008 0.007-0.018 0.010-0.025 0.018l-2.936 3.216-2.705-2.66 1.771-1.761c0.13-0.13 0.131-0.341 0.001-0.472-0.066-0.066-0.152-0.098-0.238-0.098v-0l-1.387 0.008 0.017-1.005 1.94 0.017c0.791 0.809 1.893 1.313 3.113 1.313 0.273 0 0.54-0.028 0.8-0.077 0.025 0.020 0.050 0.040 0.081 0.053l1.506 0.6 0.207 1.027-1.877-0.267zM12.513 11.608l-0.196-0.974 0.904-0.675 0.592 0.785-1.3 0.863zM14.859 9.838l-0.524 0.491-0.582-0.773 0.52-0.398c0.097-0.075 0.219-0.105 0.339-0.089 0.121 0.017 0.227 0.080 0.3 0.178 0.135 0.182 0.112 0.437-0.053 0.592z"></path>
<path fill="#212121" style="fill: var(--color1, #212121)" d="M8.501 11.59l-1.339-1.333c-0.13-0.13-0.34-0.13-0.47 0l-1.339 1.333c-0.063 0.063-0.098 0.148-0.098 0.236s0.035 0.174 0.098 0.236l1.339 1.333c0.065 0.065 0.15 0.097 0.235 0.097s0.17-0.032 0.235-0.097l1.339-1.333c0.063-0.063 0.098-0.148 0.098-0.236s-0.035-0.174-0.098-0.236zM6.927 12.689l-0.867-0.863 0.867-0.863 0.867 0.863-0.867 0.863z"></path>
<path fill="#212121" style="fill: var(--color1, #212121)" d="M10.728 3.169l-0.161 0.647c0.044 0.011 1.086 0.282 1.086 1.343h0.667c-0-1.261-1.041-1.853-1.592-1.99z"></path>
<path fill="#212121" style="fill: var(--color1, #212121)" d="M12.319 5.826h-0.667v0.667h0.667v-0.667z"></path>
</symbol>
<symbol id="clock" viewBox="0 0 20 20">
<path fill="#212121" style="fill: var(--color1, #212121)" d="M19.56 9.563c-0.001-5.283-4.285-9.564-9.567-9.563s-9.564 4.285-9.563 9.567c0.001 4.161 2.692 7.844 6.656 9.11 0.038 0.012 0.077 0.018 0.117 0.018 0.075-0 0.149-0.020 0.214-0.059 0.084-0.050 0.147-0.129 0.177-0.223l2.416-7.656c0.66-0.003 1.193-0.542 1.189-1.202s-0.541-1.193-1.202-1.19c-0.178 0.001-0.353 0.042-0.513 0.12l-3.191-3.192c-0.158-0.153-0.411-0.148-0.564 0.010-0.149 0.155-0.149 0.399 0 0.554l3.19 3.193c-0.245 0.5-0.105 1.103 0.335 1.443l-2.302 7.296c-4.549-1.676-6.878-6.721-5.202-11.27s6.721-6.878 11.27-5.202 6.878 6.721 5.202 11.27c-0.819 2.222-2.501 4.019-4.664 4.983l-0.249-1.171c-0.045-0.215-0.257-0.353-0.472-0.307-0.068 0.015-0.131 0.046-0.183 0.093l-2.398 2.141c-0.165 0.146-0.179 0.398-0.033 0.563 0.048 0.053 0.109 0.093 0.177 0.115l3.062 0.977c0.21 0.067 0.434-0.048 0.501-0.258 0.021-0.066 0.025-0.137 0.011-0.205l-0.244-1.149c3.54-1.492 5.839-4.964 5.831-8.806zM9.995 9.165c0.22 0 0.399 0.179 0.399 0.399s-0.179 0.399-0.399 0.399c-0.22 0-0.399-0.178-0.399-0.399s0.178-0.399 0.399-0.399zM11.308 18.455l1.365-1.218 0.377 1.775-1.742-0.558z"></path>
<path fill="#2196f3" style="fill: var(--color2, #2196f3)" d="M9.597 1.991v0.797c0 0.22 0.178 0.399 0.399 0.399s0.399-0.178 0.399-0.399v-0.797c0-0.22-0.179-0.399-0.399-0.399s-0.399 0.179-0.399 0.399z"></path>
<path fill="#2196f3" style="fill: var(--color2, #2196f3)" d="M2.422 9.165c-0.22 0-0.399 0.179-0.399 0.399s0.178 0.399 0.399 0.399h0.797c0.22 0 0.399-0.178 0.399-0.399s-0.178-0.399-0.399-0.399h-0.797z"></path>
<path fill="#2196f3" style="fill: var(--color2, #2196f3)" d="M17.568 9.962c0.22 0 0.399-0.178 0.399-0.399s-0.178-0.399-0.399-0.399h-0.797c-0.22 0-0.399 0.179-0.399 0.399s0.179 0.399 0.399 0.399h0.797z"></path>
</symbol>
<symbol id="company1" viewBox="0 0 35 20">
<path  d="M12.667 2.333l2.336 2.211-4.336-0.003v10.729h11.333v-4.102l2.333 2.209v-11.045h-11.667zM21.897 10.909l-6.623-6.27h6.623v6.27zM19.841 13.702h-7.381v-7.216h0.522v6.727h6.859v0.489zM14.203 16.7l-0.273 0.562-0.273-0.562h-0.229l0.398 0.749v0.436h0.207v-0.436l0.397-0.749h-0.228zM14.546 17.885l0.096-0.276h0.459l0.097 0.276h0.215l-0.448-1.185h-0.185l-0.448 1.185h0.214zM14.871 16.951l0.172 0.492h-0.343l0.172-0.492zM15.957 17.414c-0.030 0.046-0.045 0.096-0.045 0.151 0 0.1 0.035 0.181 0.105 0.243s0.164 0.093 0.282 0.093 0.218-0.032 0.303-0.095l0.067 0.079h0.229l-0.174-0.206c0.068-0.093 0.103-0.213 0.103-0.359h-0.172c0 0.080-0.017 0.152-0.050 0.217l-0.229-0.27 0.081-0.059c0.057-0.041 0.098-0.082 0.123-0.124s0.037-0.087 0.037-0.137c0-0.075-0.028-0.138-0.083-0.188s-0.125-0.077-0.212-0.077c-0.096 0-0.171 0.027-0.228 0.081s-0.085 0.127-0.085 0.22c0 0.038 0.009 0.077 0.027 0.118s0.051 0.090 0.097 0.148c-0.088 0.063-0.147 0.117-0.177 0.164zM16.491 17.676c-0.058 0.044-0.12 0.067-0.187 0.067-0.059 0-0.106-0.017-0.142-0.051s-0.053-0.079-0.053-0.133c0-0.063 0.033-0.12 0.098-0.169l0.025-0.018 0.259 0.305zM16.279 17.151c-0.056-0.069-0.084-0.126-0.084-0.172 0-0.040 0.011-0.072 0.034-0.098s0.053-0.039 0.092-0.039c0.036 0 0.065 0.011 0.089 0.033s0.035 0.048 0.035 0.079c0 0.047-0.017 0.085-0.050 0.115l-0.025 0.020-0.090 0.062zM18.208 17.795c0.081-0.071 0.128-0.17 0.14-0.296h-0.205c-0.011 0.085-0.037 0.145-0.077 0.181s-0.101 0.055-0.182 0.055c-0.088 0-0.156-0.034-0.202-0.101s-0.068-0.165-0.068-0.293v-0.105c0.001-0.126 0.026-0.222 0.073-0.287s0.117-0.098 0.207-0.098c0.077 0 0.135 0.019 0.175 0.057s0.065 0.099 0.075 0.184h0.205c-0.013-0.13-0.059-0.23-0.139-0.301s-0.185-0.107-0.316-0.107c-0.097 0-0.183 0.023-0.257 0.069s-0.13 0.112-0.17 0.197c-0.040 0.085-0.059 0.184-0.059 0.295v0.111c0.002 0.109 0.022 0.205 0.061 0.287s0.094 0.146 0.166 0.191c0.072 0.044 0.155 0.067 0.25 0.067 0.135 0 0.243-0.035 0.325-0.106zM19.418 17.629c0.040-0.088 0.060-0.19 0.060-0.306v-0.066c-0.001-0.116-0.021-0.217-0.062-0.304s-0.098-0.154-0.173-0.2c-0.074-0.047-0.16-0.070-0.256-0.070s-0.182 0.024-0.257 0.071c-0.074 0.047-0.132 0.114-0.173 0.203s-0.061 0.19-0.061 0.306v0.067c0.001 0.113 0.021 0.213 0.062 0.3s0.099 0.154 0.174 0.201c0.075 0.047 0.161 0.070 0.257 0.070 0.097 0 0.183-0.023 0.257-0.070s0.132-0.114 0.173-0.202zM19.197 16.959c0.050 0.070 0.075 0.171 0.075 0.302v0.062c0 0.133-0.025 0.235-0.074 0.304s-0.119 0.104-0.21 0.104c-0.090 0-0.161-0.036-0.212-0.107s-0.076-0.172-0.076-0.302v-0.068c0.001-0.128 0.027-0.226 0.077-0.295s0.12-0.105 0.209-0.105c0.091 0 0.161 0.035 0.211 0.105z"></path>
</symbol>
<symbol id="company2" viewBox="0 0 35 20">
<path  d="M16.705 1.978h-0.046c-0.070-0.004-0.14-0.006-0.21-0.008v0h-0.152c-0.132 0-0.267 0.003-0.401 0.010-0.010-0.001-0.020-0.001-0.030 0-1.215 0.069-2.405 0.372-3.505 0.894l-0.144 0.070v7.38l0.337-0.114c0.296-0.102 0.611-0.193 0.938-0.278 0.882-0.226 1.788-0.347 2.698-0.359v0.97c-0.121 0.001-0.238 0.004-0.355 0.010h-0.028c-0.701 0.038-1.396 0.145-2.076 0.319-0.861 0.216-1.692 0.539-2.473 0.964v-9.466c0.811-0.473 1.685-0.828 2.595-1.055 0.799-0.206 1.62-0.312 2.445-0.315h0.143c0.17 0.004 0.336 0.012 0.492 0.024 0.411 0.029 0.819 0.094 1.218 0.194v0.954c-0.388-0.090-0.783-0.15-1.181-0.178-0.008-0.001-0.016-0.001-0.024-0.002-0.082-0.007-0.165-0.014-0.241-0.014zM18.384 2.954c0.212 0.016 0.431 0.024 0.653 0.024 0.867-0.003 1.731-0.114 2.571-0.33 0.861-0.216 1.692-0.541 2.472-0.965v9.297c-0.811 0.473-1.685 0.828-2.596 1.055-0.799 0.206-1.621 0.311-2.445 0.314-0.625 0.005-1.248-0.068-1.855-0.219v-9.357c0.143 0.033 0.291 0.064 0.441 0.089 0.246 0.042 0.506 0.072 0.759 0.091zM23.116 3.026l-0.337 0.114c-0.31 0.104-0.623 0.197-0.938 0.281-0.916 0.235-1.857 0.356-2.802 0.359-0.22 0-0.422-0.006-0.618-0.019l-0.269-0.018v7.592l0.231 0.020c0.214 0.019 0.435 0.028 0.658 0.028 0.744-0.003 1.486-0.099 2.207-0.286 0.594-0.149 1.171-0.356 1.724-0.62l0.144-0.069v-7.383z"></path>
<path  d="M11.912 15.071c-0.048-0.050-0.107-0.090-0.172-0.116s-0.134-0.038-0.204-0.036c-0.074-0.001-0.148 0.013-0.217 0.041-0.063 0.025-0.121 0.063-0.169 0.111s-0.085 0.106-0.109 0.17c-0.026 0.067-0.040 0.138-0.039 0.209v1.265c-0.003 0.089 0.014 0.178 0.050 0.259 0.030 0.065 0.073 0.123 0.126 0.17 0.051 0.043 0.11 0.073 0.174 0.090 0.061 0.017 0.125 0.026 0.189 0.026 0.070 0.001 0.14-0.014 0.204-0.044 0.063-0.028 0.121-0.067 0.169-0.117 0.047-0.049 0.084-0.107 0.11-0.17s0.041-0.132 0.041-0.202v-0.142h-0.331v0.113c0.001 0.038-0.006 0.077-0.019 0.113-0.011 0.027-0.027 0.051-0.048 0.071-0.020 0.017-0.044 0.029-0.069 0.036-0.022 0.007-0.046 0.011-0.069 0.012-0.030 0.003-0.059-0.001-0.087-0.013s-0.051-0.031-0.068-0.055c-0.031-0.051-0.046-0.11-0.044-0.17v-1.179c-0.002-0.065 0.012-0.13 0.040-0.189 0.017-0.027 0.041-0.048 0.070-0.062s0.060-0.019 0.092-0.015c0.028-0.001 0.057 0.005 0.082 0.017s0.048 0.031 0.065 0.054c0.037 0.049 0.056 0.108 0.055 0.17v0.109h0.327v-0.129c0.001-0.076-0.013-0.151-0.041-0.221-0.024-0.066-0.062-0.127-0.11-0.178v0z"></path>
<path  d="M13.876 15.056c-0.105-0.089-0.238-0.138-0.376-0.139-0.067 0-0.134 0.012-0.197 0.036s-0.123 0.058-0.175 0.103c-0.055 0.049-0.098 0.11-0.128 0.177-0.033 0.077-0.050 0.161-0.048 0.245v1.213c-0.002 0.085 0.014 0.17 0.048 0.248 0.030 0.065 0.074 0.123 0.128 0.169 0.051 0.047 0.11 0.083 0.175 0.107 0.063 0.023 0.13 0.035 0.197 0.036s0.134-0.012 0.197-0.036c0.066-0.024 0.126-0.060 0.179-0.107s0.095-0.105 0.125-0.169c0.034-0.078 0.050-0.163 0.048-0.248v-1.213c0.002-0.084-0.015-0.168-0.048-0.245-0.029-0.067-0.072-0.127-0.125-0.177v0zM13.722 16.691c0.003 0.032-0.002 0.065-0.013 0.095s-0.029 0.058-0.053 0.080c-0.044 0.037-0.099 0.057-0.156 0.057s-0.112-0.020-0.156-0.057c-0.023-0.022-0.041-0.050-0.053-0.080s-0.016-0.063-0.013-0.095v-1.213c-0.003-0.032 0.002-0.065 0.013-0.095s0.029-0.058 0.053-0.080c0.044-0.037 0.099-0.057 0.156-0.057s0.112 0.020 0.156 0.057c0.023 0.022 0.041 0.050 0.053 0.080s0.016 0.063 0.013 0.095v1.213z"></path>
<path  d="M16.456 17.233v-2.296h-0.318l-0.417 1.216h-0.006l-0.421-1.216h-0.315v2.296h0.328v-1.397h0.006l0.321 0.987h0.164l0.324-0.987h0.006v1.397h0.328z"></path>
<path  d="M18.319 15.098c-0.051-0.057-0.114-0.1-0.186-0.125-0.077-0.025-0.157-0.037-0.238-0.036h-0.487v2.296h0.327v-0.897h0.169c0.102 0.005 0.204-0.017 0.295-0.063 0.074-0.041 0.136-0.102 0.18-0.175 0.038-0.061 0.063-0.129 0.075-0.2 0.013-0.086 0.019-0.174 0.018-0.261 0.003-0.11-0.008-0.221-0.032-0.328-0.022-0.079-0.063-0.152-0.121-0.211v0zM18.151 15.798c-0.001 0.042-0.012 0.082-0.030 0.12-0.019 0.035-0.048 0.064-0.084 0.081-0.048 0.022-0.101 0.032-0.154 0.029h-0.149v-0.781h0.169c0.051-0.003 0.101 0.007 0.148 0.029 0.034 0.019 0.061 0.049 0.077 0.085 0.018 0.040 0.028 0.084 0.029 0.128 0 0.048 0 0.099 0 0.153s0.003 0.108 0 0.158h-0.003z"></path>
<path  d="M19.869 14.937h-0.268l-0.506 2.296h0.327l0.096-0.493h0.446l0.096 0.493h0.327l-0.519-2.296zM19.567 16.427l0.161-0.832h0.006l0.16 0.832h-0.327z"></path>
<path  d="M21.983 16.32h-0.006l-0.494-1.383h-0.315v2.296h0.327v-1.381h0.007l0.5 1.381h0.308v-2.296h-0.327v1.383z"></path>
<path  d="M23.983 14.937l-0.263 0.913h-0.007l-0.263-0.913h-0.347l0.449 1.326v0.971h0.327v-0.971l0.449-1.326h-0.347z"></path>
<path  d="M11 17.882h0.158v0.442h0.107v-0.442h0.157v-0.091h-0.422v0.091z"></path>
<path  d="M12.326 17.791l-0.207 0.533h0.114l0.044-0.121h0.212l0.046 0.121h0.116l-0.212-0.533h-0.114zM12.309 18.113l0.073-0.197 0.073 0.197h-0.145z"></path>
<path  d="M13.636 18.127h0.123v0.069c-0.036 0.029-0.081 0.045-0.127 0.045-0.022 0.001-0.043-0.003-0.063-0.012s-0.037-0.022-0.050-0.039c-0.028-0.041-0.042-0.090-0.040-0.139 0-0.119 0.051-0.178 0.153-0.178 0.027-0.003 0.054 0.004 0.076 0.020s0.038 0.039 0.045 0.065l0.105-0.020c-0.023-0.104-0.098-0.157-0.226-0.157-0.069-0.002-0.135 0.023-0.186 0.069-0.027 0.027-0.048 0.059-0.061 0.094s-0.019 0.073-0.016 0.111c-0.003 0.073 0.021 0.144 0.068 0.2 0.026 0.027 0.058 0.048 0.093 0.061s0.072 0.019 0.11 0.017c0.083 0.002 0.164-0.028 0.226-0.085v-0.21h-0.231v0.090z"></path>
<path  d="M14.974 17.791h-0.108v0.533h0.374v-0.091h-0.266v-0.442z"></path>
<path  d="M16.106 17.791h-0.108v0.533h0.108v-0.533z"></path>
<path  d="M17.212 18.147l-0.218-0.356h-0.105v0.533h0.1v-0.348l0.214 0.348h0.107v-0.533h-0.099v0.356z"></path>
<path  d="M18.212 18.089h0.266v-0.091h-0.266v-0.117h0.286v-0.091h-0.394v0.533h0.405v-0.091h-0.297v-0.144z"></path>
<path  d="M20.637 18.001h-0.21v-0.21h-0.107v0.533h0.107v-0.233h0.21v0.233h0.107v-0.533h-0.107v0.21z"></path>
<path  d="M21.643 18.089h0.266v-0.091h-0.266v-0.117h0.287v-0.091h-0.394v0.533h0.404v-0.091h-0.297v-0.144z"></path>
<path  d="M23.008 18.089c0.093-0.014 0.14-0.064 0.14-0.148 0.003-0.023-0.001-0.046-0.010-0.067s-0.024-0.039-0.042-0.052c-0.048-0.024-0.102-0.035-0.156-0.031h-0.226v0.533h0.107v-0.223h0.021c0.023-0.001 0.046 0.003 0.067 0.012 0.016 0.010 0.029 0.023 0.038 0.039l0.116 0.17h0.128l-0.065-0.104c-0.029-0.051-0.069-0.095-0.118-0.128v0zM22.9 18.015h-0.079v-0.134h0.084c0.037-0.003 0.074 0.001 0.109 0.013 0.008 0.007 0.014 0.015 0.018 0.025s0.006 0.020 0.005 0.030c-0.001 0.010-0.003 0.021-0.008 0.030s-0.012 0.017-0.020 0.023c-0.035 0.011-0.072 0.015-0.109 0.013v0z"></path>
<path  d="M24.037 18.089h0.266v-0.091h-0.266v-0.117h0.287v-0.091h-0.395v0.533h0.405v-0.091h-0.297v-0.144z"></path>
</symbol>
<symbol id="company3" viewBox="0 0 35 20">
<path  d="M12.135 16.367c0.005 0 0.011 0.001 0.015 0.003s0.009 0.005 0.013 0.008l0.073 0.069c-0.056 0.056-0.126 0.101-0.204 0.132-0.092 0.033-0.191 0.050-0.29 0.047-0.093 0.002-0.186-0.013-0.273-0.044-0.078-0.028-0.148-0.071-0.205-0.125-0.059-0.056-0.104-0.121-0.133-0.193-0.032-0.079-0.047-0.163-0.046-0.247-0.001-0.085 0.016-0.169 0.050-0.248 0.032-0.072 0.080-0.137 0.141-0.193 0.062-0.054 0.136-0.097 0.218-0.126 0.090-0.030 0.185-0.045 0.281-0.044 0.089-0.002 0.178 0.012 0.261 0.040 0.072 0.027 0.138 0.065 0.195 0.111l-0.061 0.074c-0.004 0.005-0.009 0.010-0.015 0.013-0.007 0.004-0.016 0.006-0.025 0.006s-0.019-0.003-0.026-0.008l-0.033-0.020-0.045-0.025c-0.020-0.009-0.040-0.018-0.061-0.024-0.027-0.008-0.055-0.015-0.083-0.020-0.036-0.006-0.072-0.008-0.108-0.008-0.069-0.001-0.138 0.011-0.202 0.033-0.060 0.021-0.114 0.053-0.158 0.093-0.045 0.043-0.080 0.094-0.103 0.148-0.026 0.063-0.038 0.129-0.037 0.196-0.001 0.068 0.012 0.135 0.037 0.199 0.022 0.054 0.056 0.105 0.101 0.148 0.042 0.040 0.093 0.071 0.151 0.092 0.059 0.021 0.123 0.032 0.187 0.032 0.037 0.001 0.074-0.002 0.111-0.006 0.060-0.006 0.117-0.024 0.168-0.053 0.025-0.015 0.049-0.031 0.072-0.049 0.009-0.008 0.022-0.012 0.035-0.013v0z"></path>
<path  d="M14.235 16.018c0.001 0.084-0.016 0.167-0.049 0.246-0.030 0.071-0.076 0.136-0.137 0.191s-0.134 0.097-0.215 0.125c-0.178 0.059-0.375 0.059-0.553 0-0.080-0.028-0.153-0.071-0.214-0.126-0.061-0.055-0.108-0.121-0.138-0.193-0.065-0.159-0.065-0.333 0-0.492 0.031-0.072 0.078-0.137 0.138-0.193 0.061-0.053 0.134-0.094 0.214-0.121 0.178-0.060 0.375-0.060 0.553 0 0.081 0.028 0.154 0.071 0.214 0.126s0.106 0.12 0.137 0.19c0.034 0.079 0.050 0.163 0.049 0.247zM14.044 16.018c0.001-0.067-0.010-0.134-0.035-0.197-0.020-0.054-0.053-0.105-0.097-0.148-0.043-0.041-0.095-0.072-0.154-0.093-0.129-0.043-0.272-0.043-0.402 0-0.059 0.021-0.111 0.053-0.154 0.093-0.044 0.043-0.078 0.093-0.098 0.148-0.046 0.129-0.046 0.266 0 0.395 0.021 0.055 0.054 0.105 0.098 0.148 0.043 0.040 0.095 0.072 0.154 0.092 0.129 0.042 0.272 0.042 0.402 0 0.058-0.021 0.111-0.052 0.154-0.092 0.044-0.043 0.077-0.093 0.097-0.148 0.024-0.064 0.036-0.13 0.035-0.197v0z"></path>
<path  d="M15.667 16.225l0.019 0.044c0.007-0.016 0.014-0.030 0.021-0.044s0.015-0.029 0.024-0.043l0.464-0.734c0.009-0.013 0.017-0.021 0.026-0.023 0.012-0.003 0.025-0.005 0.038-0.004h0.137v1.193h-0.163v-0.877c0-0.011 0-0.024 0-0.037s-0.001-0.027 0-0.041l-0.467 0.744c-0.006 0.011-0.015 0.021-0.027 0.027s-0.026 0.010-0.040 0.010h-0.026c-0.014 0-0.028-0.003-0.040-0.010s-0.021-0.016-0.027-0.027l-0.481-0.749c0 0.014 0 0.028 0 0.043s0 0.027 0 0.038v0.877h-0.157v-1.191h0.137c0.013-0.001 0.026 0.001 0.038 0.004 0.011 0.005 0.020 0.013 0.025 0.023l0.474 0.734c0.009 0.014 0.017 0.028 0.024 0.043v0z"></path>
<path  d="M17.415 16.166v0.447h-0.182v-1.191h0.405c0.077-0.001 0.153 0.008 0.226 0.026 0.059 0.014 0.113 0.040 0.16 0.074 0.040 0.032 0.072 0.072 0.091 0.117 0.021 0.049 0.032 0.1 0.031 0.152 0.001 0.052-0.011 0.104-0.034 0.152-0.022 0.046-0.055 0.087-0.098 0.119-0.047 0.036-0.101 0.063-0.161 0.079-0.071 0.020-0.145 0.029-0.219 0.028l-0.22-0.003zM17.415 16.038h0.22c0.048 0.001 0.095-0.006 0.141-0.018 0.038-0.011 0.072-0.028 0.102-0.051 0.027-0.022 0.048-0.049 0.062-0.079 0.015-0.032 0.022-0.066 0.022-0.1 0.002-0.033-0.004-0.066-0.018-0.097s-0.036-0.059-0.064-0.081c-0.069-0.047-0.157-0.070-0.244-0.064h-0.22v0.491z"></path>
<path  d="M19.858 16.614h-0.144c-0.014 0-0.029-0.003-0.040-0.011-0.010-0.007-0.018-0.017-0.024-0.028l-0.124-0.288h-0.621l-0.128 0.288c-0.005 0.011-0.013 0.020-0.023 0.027-0.012 0.008-0.026 0.012-0.041 0.012h-0.144l0.545-1.193h0.189l0.553 1.193zM18.958 16.171h0.513l-0.216-0.486c-0.017-0.037-0.030-0.074-0.041-0.112l-0.021 0.062c-0.006 0.019-0.014 0.036-0.020 0.051l-0.214 0.485z"></path>
<path  d="M20.643 15.427c0.011 0.005 0.020 0.012 0.027 0.021l0.795 0.899c0-0.014 0-0.028 0-0.042s0-0.027 0-0.039v-0.845h0.163v1.193h-0.091c-0.013 0-0.026-0.002-0.037-0.007s-0.021-0.013-0.029-0.022l-0.794-0.899c0.001 0.014 0.001 0.027 0 0.041s0 0.025 0 0.036v0.85h-0.163v-1.193h0.096c0.011-0 0.022 0.002 0.033 0.006v0z"></path>
<path  d="M22.968 16.14v0.474h-0.182v-0.474l-0.503-0.719h0.163c0.014-0.001 0.028 0.003 0.039 0.010 0.010 0.008 0.018 0.017 0.025 0.027l0.314 0.464c0.013 0.020 0.024 0.038 0.033 0.055s0.016 0.034 0.023 0.051l0.024-0.051c0.009-0.019 0.019-0.037 0.031-0.054l0.31-0.467c0.007-0.009 0.014-0.018 0.024-0.025 0.011-0.008 0.025-0.012 0.039-0.012h0.164l-0.503 0.722z"></path>
<path  d="M15.577 13.419c0.079 0.009 0.159 0.016 0.24 0.022 1.226-0.477 2.264-1.257 2.983-2.243s1.087-2.134 1.059-3.301l-1.351-1.174c0.275 1.242 0.146 2.527-0.371 3.709s-1.403 2.217-2.559 2.987v0z"></path>
<path  d="M15.095 13.364l0.036 0.006c1.235-0.767 2.176-1.839 2.702-3.076s0.613-2.583 0.25-3.863l-1.925-1.672c0.779 1.375 1.092 2.913 0.904 4.437s-0.87 2.969-1.967 4.169v0z"></path>
<path  d="M21.623 9.276c-0.327 1.282-1.121 2.439-2.265 3.297-0.334 0.252-0.694 0.477-1.076 0.671 0.931-0.238 1.787-0.658 2.502-1.229s1.269-1.276 1.62-2.062l-0.781-0.678z"></path>
<path  d="M21.316 9.087l-1.111-0.966c-0.021 1.101-0.382 2.177-1.043 3.116s-1.601 1.707-2.72 2.224h0.005c0.249-0 0.499-0.013 0.746-0.039 1.046-0.371 1.97-0.961 2.689-1.717s1.212-1.656 1.434-2.618v0z"></path>
<path  d="M15.255 4.054l-1.326-1.154c-1.185 0.398-2.205 1.098-2.925 2.007s-1.107 1.987-1.111 3.091v0c0.004 1.22 0.477 2.404 1.343 3.364s2.076 1.642 3.438 1.938c1.216-1.287 1.928-2.878 2.033-4.541s-0.404-3.312-1.452-4.706v0z"></path>
<path  d="M24.38 8.909c-0.005-1.447-0.669-2.834-1.847-3.858s-2.774-1.6-4.44-1.605v0c-0.77-0.001-1.533 0.123-2.251 0.364l8.119 7.054c0.278-0.623 0.42-1.286 0.42-1.955v0z"></path>
</symbol>
<symbol id="company4" viewBox="0 0 35 20">
<path  d="M8.049 7.034h-0.001c-0.799 0-1.447 0.576-1.447 1.286v0.001c0 0.71 0.648 1.286 1.447 1.286h0.001c0.799 0 1.447-0.576 1.447-1.286v-0.001c0-0.71-0.648-1.286-1.447-1.286z"></path>
<path  d="M18.732 6.623c-0.002-0.987-0.444-1.932-1.229-2.63s-1.849-1.091-2.959-1.093v0c-1.111 0.002-2.175 0.395-2.96 1.092s-1.228 1.644-1.23 2.631v0 5.441c0 0 8.378-0.829 8.379-5.44v-0.001z"></path>
<path  d="M3.667 13.85c0.002 0.687 0.31 1.344 0.856 1.83s1.286 0.759 2.059 0.761v0c0.772-0.002 1.512-0.276 2.058-0.761s0.854-1.143 0.856-1.829v0-3.786c0 0-5.829 0.577-5.829 3.785zM6.581 14.528c-0.151 0-0.299-0.040-0.424-0.114s-0.223-0.18-0.281-0.304c-0.058-0.124-0.073-0.26-0.043-0.392s0.102-0.252 0.209-0.347c0.107-0.095 0.243-0.159 0.391-0.186s0.302-0.013 0.441 0.039c0.139 0.051 0.259 0.138 0.343 0.25s0.129 0.243 0.129 0.377c0 0.089-0.019 0.178-0.057 0.26s-0.094 0.158-0.165 0.221c-0.071 0.063-0.155 0.113-0.248 0.148s-0.192 0.052-0.293 0.052v-0.003z"></path>
<path  d="M12.473 14.155h-0.563v0.581h-0.293v-1.422h0.926v0.237h-0.633v0.367h0.563v0.236zM13.881 14.057c0 0.14-0.025 0.263-0.074 0.368s-0.12 0.187-0.213 0.244c-0.092 0.057-0.197 0.086-0.316 0.086-0.118 0-0.223-0.028-0.315-0.085s-0.164-0.137-0.215-0.242c-0.051-0.105-0.077-0.227-0.077-0.363v-0.070c0-0.14 0.025-0.263 0.075-0.369s0.122-0.188 0.214-0.245c0.092-0.057 0.198-0.086 0.316-0.086s0.224 0.029 0.315 0.086c0.092 0.057 0.164 0.138 0.214 0.245s0.076 0.229 0.076 0.368v0.063zM13.584 13.992c0-0.149-0.027-0.262-0.080-0.34s-0.13-0.116-0.228-0.116c-0.098 0-0.174 0.038-0.228 0.115s-0.080 0.188-0.081 0.336v0.069c0 0.145 0.027 0.258 0.080 0.338s0.13 0.12 0.23 0.12c0.098 0 0.174-0.038 0.227-0.115s0.079-0.19 0.080-0.338v-0.069zM14.831 14.363c0-0.055-0.020-0.098-0.059-0.127s-0.109-0.061-0.211-0.094c-0.102-0.033-0.182-0.066-0.241-0.098-0.161-0.087-0.242-0.205-0.242-0.353 0-0.077 0.021-0.145 0.064-0.205s0.106-0.108 0.187-0.142c0.081-0.034 0.173-0.051 0.273-0.051s0.192 0.019 0.272 0.056c0.079 0.036 0.141 0.088 0.185 0.155s0.066 0.143 0.066 0.228h-0.293c0-0.065-0.021-0.116-0.062-0.151s-0.099-0.055-0.173-0.055c-0.072 0-0.127 0.015-0.167 0.046s-0.060 0.070-0.060 0.119c0 0.046 0.023 0.085 0.069 0.116s0.116 0.061 0.206 0.088c0.167 0.050 0.288 0.112 0.364 0.187s0.114 0.167 0.114 0.277c0 0.123-0.047 0.22-0.14 0.29s-0.218 0.104-0.376 0.104c-0.109 0-0.209-0.020-0.299-0.060s-0.159-0.095-0.206-0.165c-0.047-0.070-0.070-0.15-0.070-0.242h0.294c0 0.157 0.094 0.235 0.281 0.235 0.070 0 0.124-0.014 0.163-0.042s0.059-0.068 0.059-0.119zM16.394 13.551h-0.436v1.185h-0.293v-1.185h-0.43v-0.237h1.158v0.237zM17.418 14.119h-0.562v0.381h0.66v0.235h-0.953v-1.422h0.951v0.237h-0.658v0.339h0.563v0.229zM18.214 14.215h-0.233v0.521h-0.293v-1.422h0.528c0.168 0 0.297 0.037 0.389 0.112s0.137 0.181 0.137 0.317c0 0.097-0.021 0.178-0.063 0.243s-0.105 0.116-0.19 0.154l0.308 0.581v0.014h-0.314l-0.267-0.521zM17.98 13.978h0.236c0.074 0 0.131-0.019 0.171-0.056s0.061-0.090 0.061-0.155c0-0.067-0.019-0.12-0.058-0.158s-0.096-0.058-0.175-0.058h-0.235v0.427zM19.756 14.235v0.501h-0.293v-1.422h0.555c0.107 0 0.201 0.020 0.281 0.059s0.144 0.095 0.188 0.167c0.044 0.072 0.065 0.153 0.065 0.245 0 0.139-0.048 0.249-0.144 0.33s-0.227 0.12-0.396 0.12h-0.257zM19.756 13.997h0.262c0.078 0 0.136-0.018 0.177-0.055s0.062-0.089 0.062-0.156c0-0.070-0.021-0.126-0.062-0.169s-0.098-0.065-0.17-0.066h-0.269v0.446zM21.609 14.119h-0.563v0.381h0.66v0.235h-0.953v-1.422h0.951v0.237h-0.658v0.339h0.563v0.229zM22.969 13.551h-0.436v1.185h-0.293v-1.185h-0.43v-0.237h1.158v0.237zM23.992 14.119h-0.563v0.381h0.66v0.235h-0.953v-1.422h0.951v0.237h-0.658v0.339h0.563v0.229zM24.788 14.215h-0.233v0.521h-0.293v-1.422h0.528c0.168 0 0.298 0.037 0.389 0.112s0.137 0.181 0.137 0.317c0 0.097-0.021 0.178-0.063 0.243s-0.105 0.116-0.19 0.154l0.308 0.581v0.014h-0.314l-0.267-0.521zM24.555 13.978h0.236c0.074 0 0.131-0.019 0.171-0.056s0.061-0.090 0.061-0.155c0-0.067-0.019-0.12-0.058-0.158s-0.096-0.058-0.175-0.058h-0.235v0.427zM26.276 14.363c0-0.055-0.020-0.098-0.059-0.127s-0.109-0.061-0.211-0.094c-0.102-0.033-0.182-0.066-0.241-0.098-0.161-0.087-0.242-0.205-0.242-0.353 0-0.077 0.022-0.145 0.064-0.205s0.106-0.108 0.187-0.142c0.081-0.034 0.173-0.051 0.273-0.051s0.192 0.019 0.272 0.056c0.079 0.036 0.141 0.088 0.185 0.155s0.066 0.143 0.066 0.228h-0.293c0-0.065-0.021-0.116-0.062-0.151s-0.099-0.055-0.173-0.055c-0.072 0-0.127 0.015-0.167 0.046s-0.060 0.070-0.060 0.119c0 0.046 0.023 0.085 0.069 0.116s0.116 0.061 0.206 0.088c0.167 0.050 0.288 0.112 0.364 0.187s0.114 0.167 0.114 0.277c0 0.123-0.047 0.22-0.14 0.29s-0.218 0.104-0.376 0.104c-0.109 0-0.209-0.020-0.299-0.060s-0.159-0.095-0.206-0.165c-0.047-0.070-0.070-0.15-0.070-0.242h0.294c0 0.157 0.094 0.235 0.281 0.235 0.070 0 0.124-0.014 0.163-0.042s0.059-0.068 0.059-0.119z"></path>
</symbol>
<symbol id="company5" viewBox="0 0 35 20">
<path  d="M8.919 14.912c0.081 0.092 0.124 0.207 0.122 0.326 0.004 0.077-0.011 0.154-0.044 0.225s-0.083 0.135-0.146 0.186c-0.158 0.109-0.353 0.162-0.551 0.15h-0.968v-2.064h0.948c0.187-0.011 0.373 0.037 0.525 0.137 0.061 0.047 0.11 0.106 0.142 0.173s0.046 0.14 0.042 0.213c0.006 0.114-0.033 0.226-0.11 0.316-0.074 0.082-0.175 0.139-0.288 0.161 0.128 0.021 0.244 0.084 0.327 0.176v0zM7.784 14.6h0.405c0.092 0.006 0.184-0.018 0.258-0.069 0.030-0.025 0.054-0.057 0.069-0.092s0.021-0.073 0.018-0.11c0.003-0.037-0.003-0.075-0.018-0.11s-0.038-0.066-0.068-0.092c-0.076-0.052-0.171-0.077-0.265-0.070h-0.399v0.541zM8.486 15.392c0.033-0.026 0.058-0.058 0.075-0.095s0.024-0.076 0.021-0.115c0.002-0.040-0.005-0.080-0.022-0.116s-0.043-0.069-0.076-0.095c-0.079-0.054-0.177-0.080-0.275-0.075h-0.425v0.568h0.431c0.097 0.005 0.193-0.020 0.272-0.072v0z"></path>
<path  d="M10.857 15.799l-0.527-0.807h-0.198v0.807h-0.454v-2.064h0.859c0.217-0.014 0.431 0.049 0.598 0.175 0.12 0.112 0.192 0.26 0.204 0.416s-0.038 0.312-0.14 0.438c-0.106 0.111-0.251 0.185-0.41 0.21l0.562 0.825h-0.493zM10.131 14.711h0.371c0.258 0 0.387-0.104 0.387-0.313 0.003-0.043-0.004-0.085-0.021-0.125s-0.042-0.076-0.074-0.107c-0.081-0.062-0.186-0.092-0.292-0.084h-0.376l0.004 0.628z"></path>
<path  d="M13.337 15.384h-0.904l-0.16 0.415h-0.476l0.83-2.041h0.514l0.827 2.041h-0.476l-0.156-0.415zM13.216 15.071l-0.33-0.871-0.33 0.871h0.661z"></path>
<path  d="M16.441 15.799h-0.45l-1.010-1.403v1.403h-0.449v-2.064h0.449l1.010 1.412v-1.412h0.45v2.064z"></path>
<path  d="M19.011 15.305c-0.093 0.156-0.235 0.283-0.407 0.364-0.196 0.091-0.414 0.135-0.633 0.13h-0.802v-2.064h0.802c0.219-0.005 0.436 0.038 0.633 0.127 0.172 0.080 0.314 0.205 0.407 0.36 0.093 0.168 0.141 0.353 0.141 0.541s-0.048 0.374-0.141 0.541v0zM18.496 15.256c0.129-0.137 0.199-0.312 0.199-0.493s-0.071-0.355-0.199-0.493c-0.155-0.124-0.358-0.187-0.564-0.175h-0.313v1.336h0.313c0.206 0.012 0.408-0.051 0.564-0.175z"></path>
<path  d="M13.619 2.256c0 0 5.813 2.009 5.69 4.917v4.918c0 0-5.808-2.010-5.687-4.918l-0.002-4.917z"></path>
<path  d="M24.487 10.939c1.098-0.692 2.368-1.12 3.693-1.246v-1.54c-1.527 0.539-2.823 1.516-3.693 2.786v0z"></path>
<path  d="M23.827 11.403c0.899-1.657 2.456-2.935 4.353-3.572v-4.436c0 0-8.278 2.862-8.103 7.003v7.002c0 0 0.369-0.128 0.949-0.368 0-0.224 0-0.45 0.026-0.677 0.171-1.922 1.169-3.704 2.775-4.952v0z"></path>
<path  d="M23.040 14.004c0.043-0.486 0.141-0.966 0.29-1.434-1 1.078-1.605 2.416-1.731 3.826-0.012 0.133-0.019 0.266-0.022 0.403 0.47-0.207 1.017-0.465 1.592-0.768-0.147-0.667-0.19-1.349-0.129-2.028v0z"></path>
<path  d="M23.369 14.030c-0.055 0.613-0.021 1.231 0.102 1.836 2.262-1.239 4.803-3.154 4.705-5.468v-0.202c-1.616 0.166-3.128 0.812-4.303 1.841-0.275 0.637-0.445 1.309-0.504 1.992v0z"></path>
</symbol>
<symbol id="company6" viewBox="0 0 35 20">
<path  d="M17.808 9.136c-0.148-0.197-0.218-0.429-0.202-0.663v-0.961c0-0.295 0.067-0.518 0.2-0.672s0.363-0.229 0.688-0.229c0.306 0 0.523 0.065 0.651 0.196 0.14 0.166 0.208 0.37 0.192 0.575v0.226h-0.547v-0.229c0.002-0.075-0.003-0.15-0.016-0.224-0.008-0.051-0.035-0.098-0.078-0.133-0.056-0.038-0.127-0.057-0.198-0.052-0.075-0.005-0.149 0.015-0.208 0.055-0.048 0.039-0.079 0.091-0.091 0.147-0.016 0.078-0.023 0.158-0.022 0.238v1.166c-0.009 0.113 0.016 0.225 0.070 0.328 0.027 0.035 0.065 0.062 0.109 0.079s0.093 0.024 0.141 0.018c0.070 0.005 0.14-0.014 0.194-0.053 0.045-0.038 0.073-0.088 0.082-0.142 0.013-0.077 0.018-0.156 0.017-0.234v-0.237h0.547v0.216c0.015 0.214-0.051 0.426-0.189 0.604-0.126 0.143-0.34 0.214-0.655 0.214s-0.553-0.076-0.687-0.235z"></path>
<path  d="M20.086 9.146c-0.138-0.15-0.207-0.368-0.207-0.656v-1.011c0-0.285 0.069-0.502 0.207-0.648s0.369-0.22 0.693-0.219c0.322 0 0.552 0.073 0.69 0.219s0.208 0.363 0.208 0.648v1.011c0 0.285-0.070 0.504-0.211 0.655s-0.369 0.226-0.687 0.226c-0.318 0-0.554-0.076-0.693-0.225zM21.033 8.903c0.049-0.094 0.072-0.196 0.066-0.299v-1.238c0.006-0.101-0.016-0.202-0.065-0.293-0.028-0.035-0.066-0.063-0.112-0.081s-0.095-0.023-0.144-0.017c-0.049-0.006-0.099 0-0.145 0.017s-0.084 0.045-0.112 0.080c-0.050 0.092-0.072 0.192-0.066 0.293v1.244c-0.007 0.103 0.016 0.206 0.066 0.299 0.032 0.032 0.071 0.057 0.115 0.074s0.092 0.026 0.141 0.026c0.048 0 0.096-0.009 0.141-0.026s0.083-0.043 0.115-0.074v-0.006z"></path>
<path  d="M22.334 6.641h0.589l0.443 1.865 0.453-1.865h0.573l0.058 2.692h-0.424l-0.045-1.871-0.437 1.871h-0.34l-0.453-1.878-0.042 1.878h-0.428l0.053-2.692z"></path>
<path  d="M25.11 6.641h0.917c0.528 0 0.793 0.255 0.793 0.764 0 0.488-0.278 0.732-0.835 0.731h-0.313v1.197h-0.566l0.003-2.692zM25.894 7.792c0.056 0.006 0.113 0.002 0.167-0.013s0.103-0.039 0.145-0.072c0.065-0.091 0.094-0.198 0.082-0.304 0.003-0.082-0.006-0.164-0.027-0.244-0.008-0.027-0.022-0.052-0.042-0.074s-0.044-0.040-0.072-0.054c-0.079-0.033-0.165-0.047-0.253-0.043h-0.22v0.805h0.22z"></path>
<path  d="M27.636 6.641h0.608l0.624 2.692h-0.528l-0.123-0.621h-0.542l-0.127 0.621h-0.536l0.624-2.692zM28.156 8.401l-0.212-1.13-0.212 1.13h0.423z"></path>
<path  d="M29.372 6.641h0.396l0.759 1.536v-1.536h0.47v2.692h-0.377l-0.763-1.603v1.603h-0.486l0.001-2.692z"></path>
<path  d="M32.098 8.307l-0.631-1.662h0.531l0.385 1.068 0.361-1.068h0.52l-0.623 1.662v1.027h-0.544v-1.027z"></path>
<path  d="M18.683 10.511v0.141h-0.462v1.094h-0.194v-1.094h-0.464v-0.141h1.12z"></path>
<path  d="M20.131 11.745h-0.149c-0.015 0.001-0.030-0.003-0.042-0.012-0.011-0.007-0.020-0.017-0.025-0.028l-0.134-0.293h-0.641l-0.134 0.293c-0.004 0.012-0.011 0.024-0.020 0.033-0.012 0.008-0.027 0.012-0.042 0.012h-0.149l0.566-1.235h0.197l0.573 1.23zM19.193 11.287h0.535l-0.227-0.502c-0.017-0.038-0.031-0.077-0.042-0.116-0.008 0.023-0.015 0.046-0.022 0.066l-0.020 0.052-0.224 0.502z"></path>
<path  d="M21.107 11.624c0.035 0.002 0.071 0.002 0.106 0 0.031-0.003 0.061-0.008 0.091-0.015 0.028-0.006 0.055-0.013 0.082-0.023 0.025-0.009 0.050-0.020 0.076-0.030v-0.278h-0.226c-0.006 0-0.011-0-0.016-0.002s-0.010-0.004-0.014-0.008c-0.004-0.003-0.007-0.006-0.009-0.010s-0.003-0.008-0.003-0.012v-0.095h0.439v0.473c-0.036 0.022-0.074 0.042-0.113 0.059s-0.082 0.031-0.126 0.042c-0.046 0.012-0.094 0.020-0.142 0.025-0.055 0.005-0.11 0.008-0.165 0.008-0.098 0.001-0.195-0.015-0.285-0.046-0.085-0.029-0.162-0.073-0.226-0.129-0.063-0.056-0.113-0.123-0.146-0.196-0.036-0.082-0.053-0.169-0.052-0.256-0.001-0.088 0.016-0.175 0.051-0.258 0.033-0.073 0.082-0.14 0.146-0.196s0.142-0.099 0.227-0.128c0.097-0.032 0.2-0.047 0.303-0.046 0.053-0 0.105 0.004 0.157 0.011 0.046 0.006 0.091 0.017 0.135 0.031 0.040 0.013 0.078 0.029 0.113 0.049s0.068 0.041 0.099 0.065l-0.054 0.076c-0.004 0.007-0.011 0.013-0.018 0.017s-0.017 0.006-0.026 0.007c-0.013-0-0.025-0.004-0.035-0.010-0.017-0.008-0.035-0.018-0.056-0.029-0.024-0.013-0.049-0.024-0.076-0.033-0.034-0.012-0.069-0.021-0.104-0.027-0.047-0.008-0.096-0.011-0.144-0.011-0.075-0.001-0.149 0.011-0.219 0.034-0.063 0.022-0.12 0.055-0.166 0.098-0.047 0.044-0.083 0.097-0.105 0.154-0.051 0.134-0.051 0.278 0 0.412 0.025 0.058 0.063 0.111 0.113 0.155 0.046 0.042 0.103 0.076 0.165 0.098 0.072 0.021 0.148 0.030 0.224 0.024v0z"></path>
<path  d="M22.912 11.605h0.618v0.141h-0.807v-1.235h0.194l-0.005 1.094z"></path>
<path  d="M24.174 11.745h-0.194v-1.235h0.194v1.235z"></path>
<path  d="M24.894 10.516c0.012 0.006 0.022 0.013 0.029 0.023l0.828 0.931c-0.001-0.015-0.001-0.029 0-0.044 0-0.014 0-0.027 0-0.040v-0.88h0.169v1.24h-0.097c-0.014 0.001-0.029-0.001-0.042-0.007-0.012-0.006-0.022-0.014-0.031-0.023l-0.827-0.93c0 0.015 0 0.028 0 0.042s0 0.026 0 0.038v0.88h-0.162v-1.235h0.101c0.011 0 0.022 0.002 0.032 0.006v0z"></path>
<path  d="M27.345 10.511v0.136h-0.686v0.408h0.556v0.131h-0.556v0.421h0.686v0.136h-0.886v-1.232h0.886z"></path>
<path  d="M7.054 2.885l8.598 2.108v7.386l-8.598-2.107v-7.387zM6.502 2.256v8.375l9.7 2.379v-8.374l-9.7-2.38z"></path>
<path  d="M11.701 16.897l-9.701-2.381v-8.374l9.701 2.38v8.375z"></path>
<path  d="M6.663 2.79l8.486 2.081-3.609 3.117-8.487-2.082 3.61-3.116zM6.502 2.256l-4.502 3.887 9.701 2.379 4.501-3.887-9.7-2.38z"></path>
<path  d="M12.247 16.426l3.955-3.416-3.955-0.971v4.387z"></path>
</symbol>
<symbol id="diagram" viewBox="0 0 20 20">
<path fill="#2196f3" style="fill: var(--color2, #2196f3)" d="M9.328 9.353h0.666v2.998h-0.666v-2.998z"></path>
<path fill="#2196f3" style="fill: var(--color2, #2196f3)" d="M11.994 10.686h0.666v1.666h-0.666v-1.666z"></path>
<path fill="#2196f3" style="fill: var(--color2, #2196f3)" d="M6.663 11.685h0.666v0.666h-0.666v-0.666z"></path>
<path fill="#2196f3" style="fill: var(--color2, #2196f3)" d="M4.664 11.352h0.666v0.999h-0.666v-0.999z"></path>
<path fill="#212121" style="fill: var(--color1, #212121)" d="M0.999 17.682h15.992c0.552 0 0.999-0.448 0.999-0.999v-1.333c0-0.552-0.448-0.999-0.999-0.999h-0.333v-8.308l1.892-1.793c0.439 0.217 0.971 0.085 1.258-0.312s0.247-0.943-0.095-1.293-0.888-0.402-1.291-0.124c-0.403 0.279-0.546 0.807-0.339 1.251l-1.426 1.352v-0.769c0-0.552-0.448-0.999-0.999-0.999h-13.326c-0.552 0-0.999 0.448-0.999 0.999v9.995h-0.333c-0.552 0-0.999 0.448-0.999 0.999v1.333c0 0.552 0.448 0.999 0.999 0.999zM18.99 3.023c0.184 0 0.333 0.149 0.333 0.333s-0.149 0.333-0.333 0.333c-0.184 0-0.333-0.149-0.333-0.333s0.149-0.333 0.333-0.333zM1.999 4.356c0-0.184 0.149-0.333 0.333-0.333h13.326c0.184 0 0.333 0.149 0.333 0.333v1.399l-0.666 0.633v-1.366c0-0.184-0.149-0.333-0.333-0.333h-11.994c-0.184 0-0.333 0.149-0.333 0.333v8.329c0 0.184 0.149 0.333 0.333 0.333h11.994c0.184 0 0.333-0.149 0.333-0.333v-6.046l0.666-0.631v7.677h-13.993v-9.995zM4.997 8.687c-0.451-0.001-0.847 0.299-0.966 0.734s0.066 0.895 0.453 1.125c0.387 0.23 0.881 0.172 1.205-0.141l1.158 0.581c0.135 0.067 0.298 0.036 0.398-0.077l2.462-2.77 2.42 1.813c0.13 0.097 0.311 0.087 0.429-0.025l2.103-1.992v5.082h-11.327v-7.663h11.327v1.663l-2.357 2.232-2.44-1.829c-0.139-0.104-0.334-0.084-0.449 0.045l-2.496 2.808-0.933-0.467c0.007-0.040 0.011-0.080 0.013-0.121 0-0.552-0.448-0.999-0.999-0.999zM5.331 9.686c0 0.184-0.149 0.333-0.333 0.333s-0.333-0.149-0.333-0.333c0-0.184 0.149-0.333 0.333-0.333s0.333 0.149 0.333 0.333zM7.329 15.017h3.332v0.333c0 0.184-0.149 0.333-0.333 0.333h-2.665c-0.184 0-0.333-0.149-0.333-0.333v-0.333zM0.666 15.35c0-0.184 0.149-0.333 0.333-0.333h5.664v0.333c0 0.552 0.448 0.999 0.999 0.999h2.665c0.552 0 0.999-0.448 0.999-0.999v-0.333h5.664c0.184 0 0.333 0.149 0.333 0.333v1.333c0 0.184-0.149 0.333-0.333 0.333h-15.992c-0.184 0-0.333-0.149-0.333-0.333v-1.333z"></path>
</symbol>
<symbol id="facebook">
<path   d="M13.331 3.321h1.826v-3.18c-0.315-0.043-1.398-0.141-2.66-0.141-2.633 0-4.436 1.656-4.436 4.699v2.801h-2.905v3.555h2.905v8.945h3.562v-8.944h2.788l0.442-3.555h-3.231v-2.449c0.001-1.027 0.277-1.731 1.709-1.731z"></path>
</symbol>
<symbol id="instagram">
<path  d="M19.98 5.88c-0.047-1.063-0.219-1.793-0.465-2.426-0.254-0.672-0.645-1.274-1.157-1.774-0.5-0.508-1.106-0.903-1.77-1.153-0.637-0.246-1.363-0.418-2.426-0.465-1.071-0.051-1.411-0.063-4.126-0.063s-3.055 0.012-4.122 0.059c-1.063 0.047-1.793 0.219-2.426 0.465-0.672 0.254-1.274 0.645-1.774 1.157-0.508 0.5-0.902 1.106-1.153 1.77-0.246 0.637-0.418 1.363-0.465 2.426-0.051 1.071-0.063 1.41-0.063 4.126s0.012 3.055 0.059 4.122c0.047 1.063 0.219 1.793 0.465 2.426 0.254 0.672 0.648 1.274 1.156 1.774 0.5 0.508 1.106 0.903 1.77 1.153 0.637 0.246 1.363 0.418 2.426 0.465 1.066 0.047 1.407 0.059 4.122 0.059s3.055-0.012 4.122-0.059c1.063-0.047 1.793-0.219 2.426-0.465 1.344-0.52 2.407-1.582 2.927-2.926 0.246-0.637 0.418-1.364 0.465-2.426 0.047-1.067 0.059-1.407 0.059-4.122s-0.004-3.055-0.051-4.122zM18.179 14.046c-0.043 0.977-0.207 1.504-0.344 1.856-0.336 0.871-1.028 1.563-1.899 1.899-0.352 0.137-0.883 0.301-1.856 0.344-1.055 0.047-1.371 0.059-4.040 0.059s-2.989-0.012-4.040-0.059c-0.977-0.043-1.504-0.207-1.856-0.344-0.434-0.16-0.828-0.414-1.149-0.746-0.332-0.324-0.586-0.715-0.746-1.149-0.137-0.352-0.301-0.883-0.344-1.856-0.047-1.055-0.059-1.371-0.059-4.040s0.012-2.989 0.059-4.040c0.043-0.977 0.207-1.504 0.344-1.856 0.16-0.434 0.414-0.828 0.75-1.149 0.324-0.332 0.715-0.586 1.149-0.746 0.352-0.137 0.883-0.301 1.856-0.344 1.055-0.047 1.371-0.059 4.040-0.059 2.673 0 2.989 0.012 4.040 0.059 0.977 0.043 1.504 0.207 1.856 0.344 0.433 0.16 0.828 0.414 1.149 0.746 0.332 0.324 0.586 0.715 0.746 1.149 0.137 0.352 0.301 0.883 0.344 1.856 0.047 1.055 0.059 1.371 0.059 4.040s-0.012 2.981-0.059 4.036z"></path>
<path  d="M10.037 4.864c-2.836 0-5.138 2.301-5.138 5.138s2.301 5.138 5.138 5.138c2.837 0 5.138-2.301 5.138-5.138s-2.301-5.138-5.138-5.138zM10.037 13.335c-1.84 0-3.333-1.492-3.333-3.333s1.493-3.333 3.333-3.333c1.84 0 3.333 1.492 3.333 3.333s-1.492 3.333-3.333 3.333z"></path>
<path  d="M16.578 4.661c0 0.662-0.537 1.199-1.2 1.199s-1.199-0.537-1.199-1.199c0-0.663 0.537-1.199 1.199-1.199s1.2 0.537 1.2 1.199z"></path>
</symbol>
<symbol id="linkedin">
<path d="M19.995 20v-0.001h0.005v-7.335c0-3.588-0.773-6.352-4.968-6.352-2.017 0-3.37 1.107-3.922 2.156h-0.058v-1.821h-3.978v13.352h4.142v-6.612c0-1.741 0.33-3.424 2.486-3.424 2.124 0 2.156 1.987 2.156 3.536v6.501h4.138z"></path>
<path d="M0.33 6.647h4.147v13.353h-4.147v-13.353z"></path>
<path d="M2.402 0c-1.326 0-2.402 1.076-2.402 2.402s1.076 2.424 2.402 2.424c1.326 0 2.402-1.098 2.402-2.424s-1.077-2.402-2.402-2.402v0z"></path>
</symbol>
<symbol id="mail" viewBox="0 0 27 20">
<path  d="M24.167 0h-21.667c-1.379 0-2.5 1.121-2.5 2.5v15c0 1.378 1.121 2.5 2.5 2.5h21.667c1.378 0 2.5-1.122 2.5-2.5v-15c0-1.379-1.122-2.5-2.5-2.5zM24.167 1.667c0.113 0 0.221 0.023 0.319 0.065l-11.153 9.666-11.153-9.666c0.098-0.041 0.206-0.065 0.319-0.065h21.667zM24.167 18.333h-21.667c-0.46 0-0.833-0.373-0.833-0.833v-14.008l11.121 9.638c0.157 0.136 0.352 0.203 0.546 0.203s0.389-0.068 0.546-0.203l11.121-9.638v14.008c0 0.46-0.373 0.833-0.833 0.833z"></path>
</symbol>
<symbol id="tel" viewBox="0 0 13 20">
<path   d="M10.625 0h-8.75c-1.034 0-1.875 0.841-1.875 1.875v16.25c0 1.034 0.841 1.875 1.875 1.875h8.75c1.034 0 1.875-0.841 1.875-1.875v-16.25c0-1.034-0.841-1.875-1.875-1.875zM1.875 1.25h8.75c0.345 0 0.625 0.28 0.625 0.625v13.125h-10v-13.125c0-0.345 0.28-0.625 0.625-0.625zM10.625 18.75h-8.75c-0.345 0-0.625-0.28-0.625-0.625v-1.875h10v1.875c0 0.345-0.28 0.625-0.625 0.625z"></path>
<path   d="M2.942 17.174c0.244 0.228 0.244 0.598 0 0.825s-0.64 0.228-0.884 0c-0.244-0.228-0.244-0.597 0-0.825s0.64-0.228 0.884 0z"></path>
</symbol>
<symbol id="twitter" >
<path d="M20 3.799c-0.744 0.326-1.536 0.543-2.363 0.648 0.85-0.508 1.499-1.305 1.804-2.266-0.792 0.472-1.667 0.806-2.6 0.992-0.753-0.801-1.825-1.298-2.995-1.298-2.27 0-4.097 1.843-4.097 4.101 0 0.325 0.027 0.638 0.095 0.935-3.409-0.166-6.425-1.8-8.451-4.289-0.354 0.614-0.561 1.316-0.561 2.073 0 1.42 0.731 2.679 1.821 3.407-0.659-0.012-1.305-0.204-1.853-0.505 0 0.012 0 0.029 0 0.045 0 1.993 1.421 3.647 3.285 4.029-0.334 0.091-0.698 0.135-1.075 0.135-0.263 0-0.527-0.015-0.776-0.070 0.531 1.624 2.039 2.818 3.831 2.856-1.395 1.091-3.166 1.749-5.084 1.749-0.336 0-0.659-0.015-0.981-0.056 1.816 1.171 3.969 1.84 6.29 1.84 7.545 0 11.67-6.25 11.67-11.667 0-0.181-0.006-0.356-0.015-0.53 0.814-0.577 1.498-1.299 2.055-2.129z"></path>
</symbol>
</defs>
</svg>
